<?xml version="1.0" standalone="no"?>
<!DOCTYPE svg PUBLIC "-//W3C//DTD SVG 20010904//EN"
 "http://www.w3.org/TR/2001/REC-SVG-20010904/DTD/svg10.dtd">
<svg version="1.0" xmlns="http://www.w3.org/2000/svg"
 width="700.000000pt" height="700.000000pt" viewBox="0 0 700.000000 700.000000"
 preserveAspectRatio="xMidYMid meet">
<metadata>
Created by potrace 1.11, written by Peter Selinger 2001-2013
</metadata>
<g transform="translate(0.000000,700.000000) scale(0.100000,-0.100000)"
fill="#000000" stroke="none">
<path d="M1390 6996 c0 -3 -14 -77 -25 -126 -22 -107 -108 -528 -109 -540 -3
-13 -43 -15 -284 -18 l-282 -2 0 -195 0 -195 33 -1 c17 0 125 0 240 0 153 0
207 -3 207 -12 0 -7 -25 -136 -56 -287 -31 -151 -58 -286 -60 -300 -2 -14 -7
-36 -10 -50 -3 -14 -8 -36 -10 -50 -3 -14 -13 -68 -24 -120 -11 -52 -21 -106
-24 -120 -2 -14 -27 -137 -55 -275 -29 -137 -54 -261 -56 -275 -3 -14 -25
-126 -50 -250 -25 -124 -47 -236 -50 -250 -3 -14 -30 -149 -61 -300 -31 -151
-58 -286 -60 -300 -2 -14 -9 -45 -14 -70 -5 -25 -12 -56 -14 -70 -5 -26 -55
-273 -61 -300 -3 -14 -51 -257 -61 -310 -3 -14 -25 -122 -49 -240 -24 -118
-47 -231 -50 -250 -3 -19 -15 -73 -25 -120 -10 -47 -22 -101 -25 -120 -3 -19
-17 -91 -31 -160 -14 -69 -28 -136 -30 -150 -8 -40 -130 -646 -173 -861 -22
-108 -43 -209 -45 -225 -3 -16 -21 -105 -40 -199 -19 -93 -31 -173 -28 -177 8
-7 365 -78 371 -72 3 2 89 414 106 509 3 17 26 129 51 250 24 121 46 231 49
243 4 24 153 760 161 797 4 21 10 51 20 100 3 16 30 151 60 300 31 148 58 281
60 295 5 28 25 126 120 595 36 176 68 331 70 345 3 14 26 126 51 250 25 124
47 234 49 245 2 11 15 74 29 140 13 66 26 131 29 145 3 14 10 50 16 80 6 30
13 66 16 80 3 14 21 104 40 200 20 96 38 186 40 200 5 25 34 166 38 185 2 6 6
28 10 50 4 22 30 148 57 280 27 132 51 255 54 274 3 19 7 37 9 40 2 3 7 23 10
43 3 21 10 57 15 80 11 49 19 87 27 138 3 19 8 38 10 41 2 4 60 7 129 7 l125
0 -5 -26 c-3 -15 -7 -38 -10 -52 -3 -14 -11 -50 -16 -80 -6 -30 -12 -59 -14
-65 -3 -14 -17 -86 -20 -105 -2 -8 -17 -85 -35 -170 -18 -85 -33 -162 -35
-170 -2 -8 -15 -76 -30 -150 -25 -125 -29 -150 -40 -205 -2 -11 -10 -54 -19
-95 -8 -41 -17 -86 -20 -100 -2 -14 -7 -36 -10 -50 -3 -14 -8 -36 -10 -50 -3
-14 -18 -90 -34 -170 -17 -80 -33 -158 -35 -175 -3 -16 -26 -131 -52 -255 -25
-124 -48 -238 -51 -255 -2 -16 -7 -37 -9 -45 -2 -8 -6 -27 -9 -42 -3 -15 -12
-63 -20 -105 -9 -43 -18 -89 -21 -103 -3 -14 -16 -81 -30 -150 -14 -69 -27
-134 -29 -145 -2 -11 -29 -144 -60 -295 -30 -151 -57 -286 -60 -300 -2 -14 -9
-47 -15 -75 -6 -27 -13 -61 -15 -75 -2 -14 -34 -171 -70 -350 -37 -179 -69
-336 -71 -350 -3 -14 -25 -126 -50 -250 -25 -124 -48 -237 -50 -253 -3 -15
-12 -59 -20 -97 -8 -38 -17 -82 -20 -97 -2 -16 -32 -163 -66 -328 -33 -165
-63 -311 -65 -325 -2 -14 -7 -36 -10 -50 -3 -14 -8 -36 -10 -50 -3 -14 -11
-57 -19 -97 -18 -88 -18 -90 -2 -90 6 0 37 -5 68 -12 30 -6 67 -14 81 -16 14
-3 69 -14 123 -25 54 -11 99 -19 101 -18 1 2 4 16 7 33 3 17 33 167 67 335 34
168 63 312 65 320 1 8 6 33 10 55 5 22 9 47 11 55 4 23 17 84 20 95 1 6 5 24
8 41 3 17 20 100 37 185 17 85 32 163 35 174 2 11 6 31 9 45 3 14 7 36 10 50
3 14 12 59 20 100 8 41 17 86 20 100 3 14 7 36 10 50 6 26 12 57 20 100 3 14
7 36 10 50 3 14 12 59 20 100 8 41 17 84 19 95 28 141 115 576 119 595 3 14
18 93 35 175 17 83 33 161 36 175 2 14 32 162 66 330 73 359 68 336 76 380 4
19 8 42 10 50 25 124 57 280 60 300 3 14 28 138 56 275 28 138 53 261 55 275
3 14 32 160 65 325 33 165 62 309 64 320 2 11 11 55 20 98 8 42 18 90 20 105
3 15 19 92 35 172 16 80 39 193 50 252 l21 107 2042 0 c1122 0 2048 0 2057 1
14 0 16 24 16 195 l0 195 -2017 0 -2018 0 15 73 c8 39 16 83 19 97 2 14 7 36
10 50 3 14 8 36 10 50 2 14 7 36 10 50 3 14 8 34 10 45 4 23 11 59 18 95 20
98 29 150 25 153 -8 7 -374 76 -378 71 -3 -3 -141 -669 -141 -681 0 -2 -56 -3
-125 -3 -140 0 -138 -2 -115 80 5 19 12 49 15 66 2 18 23 121 45 229 23 109
42 207 43 218 2 18 -13 23 -158 52 -219 44 -225 45 -225 41z"/>
<path d="M2668 6956 c-2 -6 -3 -94 -3 -196 l0 -185 2168 -1 2167 -1 -2 196 -3
196 -2162 1 c-1506 0 -2163 -3 -2165 -10z"/>
<path d="M5368 5662 l-78 -3 -1 -172 c-1 -172 -2 -199 -13 -312 -8 -86 -27
-220 -40 -280 -94 -443 -234 -781 -473 -1143 -41 -61 -80 -118 -86 -125 -7 -6
-26 -30 -42 -53 -94 -128 -324 -364 -475 -485 -407 -326 -889 -549 -1395 -645
-97 -18 -112 -20 -194 -30 -30 -3 -64 -8 -75 -10 -12 -3 -122 -7 -246 -10
-124 -3 -229 -7 -235 -8 -8 -3 -13 -285 -6 -377 1 -14 21 -15 154 -13 262 4
486 24 661 60 11 2 37 7 56 10 62 10 292 72 400 108 237 78 460 177 660 293
97 57 193 116 200 123 3 3 34 25 70 49 229 157 520 430 698 656 57 72 106 135
110 140 329 462 534 969 626 1550 3 17 8 59 12 95 3 36 8 79 10 95 2 17 7 132
10 258 l6 227 -43 0 c-24 1 -78 2 -119 3 -41 1 -110 1 -152 -1z"/>
</g>
</svg>
